Coordinates
version=1
nRows=16
nColumns=40
inDegrees=yes

Units are S.I. units (second, meters, Newtons, ...)
If the header above contains a line with 'inDegrees', this indicates whether rotational values are in degrees (yes) or radians (no).

endheader
time	pelvis_tilt	pelvis_list	pelvis_rotation	pelvis_tx	pelvis_ty	pelvis_tz	hip_flexion_r	hip_adduction_r	hip_rotation_r	knee_angle_r	knee_angle_r_beta	ankle_angle_r	subtalar_angle_r	mtp_angle_r	hip_flexion_l	hip_adduction_l	hip_rotation_l	knee_angle_l	knee_angle_l_beta	ankle_angle_l	subtalar_angle_l	mtp_angle_l	lumbar_extension	lumbar_bending	lumbar_rotation	arm_flex_r	arm_add_r	arm_rot_r	elbow_flex_r	pro_sup_r	wrist_flex_r	wrist_dev_r	arm_flex_l	arm_add_l	arm_rot_l	elbow_flex_l	pro_sup_l	wrist_flex_l	wrist_dev_l
      3.05000000	    -20.96944597	      1.11549646	      2.38697669	     -0.41733961	      0.77256032	     -0.80340623	     66.77315499	      1.01183398	     -6.96284462	     74.02637963	      1.29200406	     20.61899765	      0.00000000	      0.00000000	     42.81056436	    -10.18272648	      4.44478552	     96.44433255	      1.68327115	    -25.55554537	      0.00000000	      0.00000000	    -13.99750639	    -24.68975499	    -21.05967080	     73.63853948	    -15.85077424	     11.53538451	     63.36066164	     87.37317979	      0.00000000	      0.00000000	     89.95705405	      9.96469857	     30.68761295	     43.67531276	     68.76327403	      0.00000000	      0.00000000
      3.05500000	    -21.00190667	      1.07420392	      2.42276103	     -0.41756028	      0.77205748	     -0.80336194	     66.87707996	      1.03166865	     -6.97627713	     74.11427526	      1.29353813	     20.66414090	      0.00000000	      0.00000000	     42.85247408	    -10.17426650	      4.50794970	     96.45499659	      1.68345727	    -25.42969007	      0.00000000	      0.00000000	    -14.04379684	    -24.63488704	    -21.11510304	     73.76599981	    -15.82945042	     11.61706690	     63.34127746	     87.33961999	      0.00000000	      0.00000000	     89.95703711	      9.90863844	     30.51811683	     43.84649495	     67.98783350	      0.00000000	      0.00000000
      3.06000000	    -21.05521150	      1.04959833	      2.47246065	     -0.41779432	      0.77156272	     -0.80325172	     67.00868900	      1.05507724	     -6.94049261	     74.20060819	      1.29504492	     20.59066650	      0.00000000	      0.00000000	     42.94173741	    -10.16695580	      4.54321825	     96.44786748	      1.68333284	    -25.68734294	      0.00000000	      0.00000000	    -14.10379725	    -24.68285596	    -21.24302676	     73.80858839	    -15.77686729	     11.52185460	     63.35202272	     87.24845168	      0.00000000	      0.00000000	     89.95699849	      9.85919701	     30.60910345	     44.08649526	     66.14624009	      0.00000000	      0.00000000
      3.06500000	    -21.00625263	      1.01064414	      2.48813501	     -0.41786883	      0.77123105	     -0.80314010	     66.98488732	      1.08297423	     -6.98786624	     74.26116020	      1.29610175	     20.86994639	      0.00000000	      0.00000000	     42.84969386	    -10.17681294	      4.59187603	     96.44340886	      1.68325503	    -25.32232916	      0.00000000	      0.00000000	    -14.23654489	    -24.68870138	    -21.24171509	     73.86214894	    -15.87164806	     11.63880386	     63.39441974	     87.38531181	      0.00000000	      0.00000000	     89.95707102	      9.97254304	     30.34085029	     44.01989044	     65.67433581	      0.00000000	      0.00000000
      3.07000000	    -20.94025117	      0.90326161	      2.53281943	     -0.41785556	      0.77097051	     -0.80291768	     66.93608468	      1.16220256	     -7.05169532	     74.30136995	      1.29680354	     20.96287107	      0.00000000	      0.00000000	     42.78151228	    -10.25594202	      4.68195931	     96.42569630	      1.68294588	    -25.18450185	      0.00000000	      0.00000000	    -14.40277788	    -24.69084308	    -21.29487841	     73.85400823	    -15.90102507	     11.51444938	     63.43008550	     87.40018404	      0.00000000	      0.00000000	     89.95700716	     10.06433210	     30.31958311	     44.05044071	     64.48471672	      0.00000000	      0.00000000
      3.07500000	    -20.93530483	      0.85479428	      2.55729707	     -0.41794596	      0.77059680	     -0.80278307	     66.98601489	      1.22797172	     -7.06539863	     74.35461325	      1.29773282	     21.15170131	      0.00000000	      0.00000000	     42.77467796	    -10.26396753	      4.73465582	     96.39718313	      1.68244824	    -25.11897888	      0.00000000	      0.00000000	    -14.49892491	    -24.69770406	    -21.34464476	     73.89534891	    -15.91676473	     11.52136435	     63.46883283	     87.38948692	      0.00000000	      0.00000000	     89.95695502	     10.11088720	     30.20499724	     44.11191589	     63.29949904	      0.00000000	      0.00000000
      3.08000000	    -21.02841813	      0.92308699	      2.56788737	     -0.41820784	      0.77002467	     -0.80271852	     67.17680121	      1.21515345	     -6.95704059	     74.49761176	      1.30022861	     21.21075844	      0.00000000	      0.00000000	     42.83418321	    -10.18187206	      4.68007658	     96.39990499	      1.68249574	    -24.95665830	      0.00000000	      0.00000000	    -14.50035349	    -24.82466552	    -21.42048347	     73.95523651	    -15.91326016	     11.53090155	     63.47721394	     87.39145281	      0.00000000	      0.00000000	     89.95698898	     10.13127310	     30.12790234	     44.18930411	     61.80094760	      0.00000000	      0.00000000
      3.08500000	    -21.03753912	      0.87601428	      2.58286374	     -0.41832729	      0.76963540	     -0.80253847	     67.23065773	      1.28994711	     -6.93324815	     74.54299319	      1.30102067	     21.28157110	      0.00000000	      0.00000000	     42.82308121	    -10.21072560	      4.71886788	     96.39276754	      1.68237117	    -24.75993904	      0.00000000	      0.00000000	    -14.64882228	    -24.86881238	    -21.66785168	     74.04855478	    -15.75887056	     11.54525249	     63.47149614	     87.42712961	      0.00000000	      0.00000000	     89.95707654	     10.05288671	     29.90409233	     44.33947665	     62.06102973	      0.00000000	      0.00000000
      3.09000000	    -21.04570456	      0.87961325	      2.63008007	     -0.41842297	      0.76925971	     -0.80245170	     67.29677518	      1.28449835	     -6.90736255	     74.64103528	      1.30273182	     21.26087446	      0.00000000	      0.00000000	     42.82019570	    -10.15719679	      4.75658899	     96.36336365	      1.68185797	    -24.55368253	      0.00000000	      0.00000000	    -14.65903673	    -24.90277293	    -21.54163187	     74.04136049	    -15.91162159	     11.51280512	     63.47943892	     87.39027327	      0.00000000	      0.00000000	     89.95694747	     10.12208957	     30.02953667	     44.31471047	     61.18732698	      0.00000000	      0.00000000
      3.09500000	    -21.04031644	      0.84416520	      2.66459075	     -0.41854159	      0.76891465	     -0.80233855	     67.33118762	      1.32956457	     -6.88645129	     74.70016852	      1.30376389	     21.31238041	      0.00000000	      0.00000000	     42.79435814	    -10.13341113	      4.81617240	     96.34760296	      1.68158290	    -24.38384322	      0.00000000	      0.00000000	    -14.77179077	    -24.90750798	    -21.61674803	     74.08097831	    -15.92741978	     11.55408556	     63.53223924	     87.40116391	      0.00000000	      0.00000000	     89.95687697	     10.17137764	     29.42360653	     43.97475901	     72.62644828	      0.00000000	      0.00000000
      3.10000000	    -21.05453472	      0.82081716	      2.72968422	     -0.41870004	      0.76852545	     -0.80225862	     67.40260735	      1.32815262	     -6.88337328	     74.78127143	      1.30517941	     21.32221965	      0.00000000	      0.00000000	     42.78934947	    -10.10315409	      4.86330339	     96.32699460	      1.68122321	    -24.20070148	      0.00000000	      0.00000000	    -14.86702755	    -24.94514267	    -21.70806386	     74.12075088	    -15.95042543	     11.54022469	     63.52541828	     87.39347064	      0.00000000	      0.00000000	     89.95682577	     10.23721184	     29.44306741	     44.04935324	     69.18901077	      0.00000000	      0.00000000
      3.10500000	    -21.04695399	      0.82788077	      2.69760443	     -0.41869633	      0.76817520	     -0.80201129	     67.43873454	      1.41844767	     -6.80513236	     74.84656227	      1.30631895	     21.29961292	      0.00000000	      0.00000000	     42.70546587	    -10.15211339	      4.76748461	     96.27860803	      1.68037871	    -24.20541748	      0.00000000	      0.00000000	    -14.94105147	    -25.03449648	    -21.73841894	     74.13423895	    -15.93339984	     11.53272251	     63.55176347	     87.39055467	      0.00000000	      0.00000000	     89.95686838	     10.20108183	     29.45988610	     44.09006756	     68.54985573	      0.00000000	      0.00000000
      3.11000000	    -21.04073028	      0.78482560	      2.73708130	     -0.41883107	      0.76785150	     -0.80187952	     67.48017213	      1.45974741	     -6.80446032	     74.90463222	      1.30733246	     21.35366552	      0.00000000	      0.00000000	     42.67893641	    -10.15508923	      4.83081136	     96.26257922	      1.68009895	    -24.07117306	      0.00000000	      0.00000000	    -15.05128322	    -25.05576674	    -21.77953462	     74.15264513	    -15.98465089	     11.51782138	     63.59010052	     87.40925126	      0.00000000	      0.00000000	     89.95670143	     10.29436494	     29.40107074	     44.12332474	     66.37705481	      0.00000000	      0.00000000
      3.11500000	    -21.09369085	      0.72564615	      2.89002287	     -0.41908266	      0.76749579	     -0.80191066	     67.57768643	      1.39826896	     -6.84841117	     74.95880929	      1.30827803	     21.30881990	      0.00000000	      0.00000000	     42.77709127	    -10.08230606	      4.96426353	     96.23734673	      1.67965856	    -24.06479934	      0.00000000	      0.00000000	    -15.15252239	    -25.02017935	    -21.98656869	     74.24599108	    -15.95876143	     11.56837719	     63.57477111	     87.35424915	      0.00000000	      0.00000000	     89.95668237	     10.24567887	     29.59339825	     44.33508214	     61.73577075	      0.00000000	      0.00000000
      3.12000000	    -21.06803322	      0.73756390	      2.83375881	     -0.41906004	      0.76718472	     -0.80169223	     67.59808286	      1.48382994	     -6.78625438	     75.03585309	      1.30962269	     21.38647912	      0.00000000	      0.00000000	     42.66027279	    -10.14612702	      4.84300681	     96.18026324	      1.67866227	    -23.99279277	      0.00000000	      0.00000000	    -15.22492544	    -25.06280233	    -21.95988143	     74.28633879	    -15.96845564	     11.59247898	     63.59998503	     87.43734180	      0.00000000	      0.00000000	     89.95658860	     10.24652093	     29.39309479	     44.33546255	     61.86272448	      0.00000000	      0.00000000
      3.12500000	    -21.02585996	      0.57697688	      3.02510713	     -0.41920938	      0.76703228	     -0.80168716	     67.56653048	      1.44228081	     -6.97491785	     75.06496141	      1.31013073	     21.37805349	      0.00000000	      0.00000000	     42.66022426	    -10.17262010	      5.06414422	     96.14310171	      1.67801368	    -23.94092441	      0.00000000	      0.00000000	    -15.42057394	    -24.92636227	    -22.13287439	     74.29313678	    -15.99510279	     11.57588652	     63.55363622	     87.39924885	      0.00000000	      0.00000000	     89.95663235	     10.28914824	     29.50034187	     44.38281158	     59.48443824	      0.00000000	      0.00000000
